<svg
  xmlns="http://www.w3.org/2000/svg"
  viewBox="0 0 64 64"
  aria-label="Learn2Think app icon"
>
  <!-- Primary brand background -->
  <rect
    x="0"
    y="0"
    width="64"
    height="64"
    rx="14"
    fill="#0F2A44"
  />

  <!-- Learn2Think brain symbol -->
  <g fill="currentColor" style="color:#FFFFFF">
    <path
      fill-rule="evenodd"
      d="
        M32 12
        C28.3 8.7 23 9.1 20.8 13.1
        C16.8 12.3 13.4 15 13 18.8
        C9.9 20.3 8.8 24 10.2 27
        C7.9 29.6 8.4 33.4 11.3 35.2
        C10.3 38.8 12.5 42.2 16 43.2
        C15.9 47 18.9 49.8 22.5 49.6
        C25 52 28.4 52 30.7 49.8
        L32 48.6
        L33.3 49.8
        C35.6 52 39 52 41.5 49.6
        C45.1 49.8 48.1 47 48 43.2
        C51.5 42.2 53.7 38.8 52.7 35.2
        C55.6 33.4 56.1 29.6 53.8 27
        C55.2 24 54.1 20.3 51 18.8
        C50.6 15 47.2 12.3 43.2 13.1
        C41 9.1 35.7 8.7 32 12
        Z

        M32 14.5
        C29.4 11.5 25.2 11.4 23.4 14.8
        C20.2 13.7 16.9 15.7 17.1 19.2
        C13.9 19.6 12.4 22.8 14 25.5
        C11.4 27.3 11.7 31 14.4 32.5
        C12.9 35.4 14.7 38.7 17.9 39.4
        C17.1 42.8 19.6 45.5 22.9 45.2
        C23.5 48.1 26.5 49.4 28.7 47.4
        L32 44
        L35.3 47.4
        C37.5 49.4 40.5 48.1 41.1 45.2
        C44.4 45.5 46.9 42.8 46.1 39.4
        C49.3 38.7 51.1 35.4 49.6 32.5
        C52.3 31 52.6 27.3 50 25.5
        C51.6 22.8 50.1 19.6 46.9 19.2
        C47.1 15.7 43.8 13.7 40.6 14.8
        C38.8 11.4 34.6 11.5 32 14.5
        Z
      "
    />

    <path
      d="
        M30.6 16
        H33.4
        V27
        C33.4 28.4 34.3 29.2 35.6 29.2
        H38
        V32
        H35.2
        C32.5 32 30.6 30.1 30.6 27.4
        Z
      "
    />

    <path
      d="
        M30.6 31
        C28.8 30.8 27.4 29.7 26.3 28.3
        L21.8 22.6
        L24 20.8
        L28.4 26.4
        C29 27.2 29.7 27.6 30.6 27.8
        Z
      "
    />

    <path
      d="
        M33.4 36
        C35.2 36 36.6 35.1 37.7 33.8
        L42.2 28.4
        L44.3 30.2
        L39.8 35.7
        C38.2 37.7 36.1 38.7 33.4 38.7
        Z
      "
    />

    <path
      d="
        M30.6 35
        V43
        H33.4
        V35
        Z
      "
    />

    <circle cx="22.2" cy="21.8" r="2.8"/>
    <circle cx="41.8" cy="29.4" r="2.8"/>
    <circle cx="32" cy="44.5" r="3"/>
  </g>
</svg>
